<mxfile host="app.diagrams.net" modified="2024-06-14T23:05:30.265Z" agent="Mozilla/5.0 (Windows NT 10.0; Win64; x64) AppleWebKit/537.36 (KHTML, like Gecko) Chrome/125.0.0.0 Safari/537.36 Edg/125.0.0.0" etag="WXQAEL7oLHL7Hw9D15Pa" version="24.5.4" type="github">
  <diagram name="第 1 页" id="JvRHcg_wInNIrrq1q9DU">
    <mxGraphModel dx="691" dy="392" grid="1" gridSize="10" guides="1" tooltips="1" connect="1" arrows="1" fold="1" page="1" pageScale="1" pageWidth="827" pageHeight="1169" math="0" shadow="0">
      <root>
        <mxCell id="0" />
        <mxCell id="1" parent="0" />
        <mxCell id="qn5_UtcD68faMCWrC0vZ-1" value="" style="rounded=0;whiteSpace=wrap;html=1;" vertex="1" parent="1">
          <mxGeometry x="60" y="100" width="120" height="450" as="geometry" />
        </mxCell>
        <mxCell id="qn5_UtcD68faMCWrC0vZ-2" value="" style="endArrow=none;html=1;rounded=0;" edge="1" parent="1">
          <mxGeometry width="50" height="50" relative="1" as="geometry">
            <mxPoint x="180" y="110" as="sourcePoint" />
            <mxPoint x="200" y="110" as="targetPoint" />
          </mxGeometry>
        </mxCell>
        <mxCell id="qn5_UtcD68faMCWrC0vZ-3" value="" style="endArrow=none;html=1;rounded=0;" edge="1" parent="1">
          <mxGeometry width="50" height="50" relative="1" as="geometry">
            <mxPoint x="180" y="120" as="sourcePoint" />
            <mxPoint x="200" y="120" as="targetPoint" />
            <Array as="points">
              <mxPoint x="180" y="120" />
            </Array>
          </mxGeometry>
        </mxCell>
        <mxCell id="qn5_UtcD68faMCWrC0vZ-4" value="" style="endArrow=none;html=1;rounded=0;" edge="1" parent="1">
          <mxGeometry width="50" height="50" relative="1" as="geometry">
            <mxPoint x="180" y="130" as="sourcePoint" />
            <mxPoint x="200" y="130" as="targetPoint" />
            <Array as="points">
              <mxPoint x="180" y="130" />
            </Array>
          </mxGeometry>
        </mxCell>
        <mxCell id="qn5_UtcD68faMCWrC0vZ-5" value="" style="endArrow=none;html=1;rounded=0;" edge="1" parent="1">
          <mxGeometry width="50" height="50" relative="1" as="geometry">
            <mxPoint x="180" y="140" as="sourcePoint" />
            <mxPoint x="200" y="140" as="targetPoint" />
            <Array as="points">
              <mxPoint x="180" y="140" />
            </Array>
          </mxGeometry>
        </mxCell>
        <mxCell id="qn5_UtcD68faMCWrC0vZ-6" value="" style="endArrow=none;html=1;rounded=0;" edge="1" parent="1">
          <mxGeometry width="50" height="50" relative="1" as="geometry">
            <mxPoint x="180" y="150" as="sourcePoint" />
            <mxPoint x="200" y="150" as="targetPoint" />
            <Array as="points">
              <mxPoint x="180" y="150" />
            </Array>
          </mxGeometry>
        </mxCell>
        <mxCell id="qn5_UtcD68faMCWrC0vZ-7" value="" style="endArrow=none;html=1;rounded=0;" edge="1" parent="1">
          <mxGeometry width="50" height="50" relative="1" as="geometry">
            <mxPoint x="180" y="160" as="sourcePoint" />
            <mxPoint x="200" y="160" as="targetPoint" />
            <Array as="points">
              <mxPoint x="180" y="160" />
            </Array>
          </mxGeometry>
        </mxCell>
        <mxCell id="qn5_UtcD68faMCWrC0vZ-8" value="" style="endArrow=none;html=1;rounded=0;" edge="1" parent="1">
          <mxGeometry width="50" height="50" relative="1" as="geometry">
            <mxPoint x="180" y="170" as="sourcePoint" />
            <mxPoint x="200" y="170" as="targetPoint" />
            <Array as="points">
              <mxPoint x="180" y="170" />
            </Array>
          </mxGeometry>
        </mxCell>
        <mxCell id="qn5_UtcD68faMCWrC0vZ-9" value="" style="endArrow=none;html=1;rounded=0;" edge="1" parent="1">
          <mxGeometry width="50" height="50" relative="1" as="geometry">
            <mxPoint x="180" y="180" as="sourcePoint" />
            <mxPoint x="200" y="180" as="targetPoint" />
            <Array as="points">
              <mxPoint x="180" y="180" />
            </Array>
          </mxGeometry>
        </mxCell>
        <mxCell id="qn5_UtcD68faMCWrC0vZ-10" value="&lt;font style=&quot;font-size: 9px;&quot;&gt;D0&lt;/font&gt;" style="text;html=1;align=center;verticalAlign=middle;whiteSpace=wrap;rounded=0;" vertex="1" parent="1">
          <mxGeometry x="150" y="100" width="40" height="10" as="geometry" />
        </mxCell>
        <mxCell id="qn5_UtcD68faMCWrC0vZ-13" value="&lt;font style=&quot;font-size: 9px;&quot;&gt;D1&lt;/font&gt;" style="text;html=1;align=center;verticalAlign=middle;whiteSpace=wrap;rounded=0;" vertex="1" parent="1">
          <mxGeometry x="150" y="110" width="40" height="10" as="geometry" />
        </mxCell>
        <mxCell id="qn5_UtcD68faMCWrC0vZ-14" value="&lt;font style=&quot;font-size: 9px;&quot;&gt;D2&lt;/font&gt;" style="text;html=1;align=center;verticalAlign=middle;whiteSpace=wrap;rounded=0;" vertex="1" parent="1">
          <mxGeometry x="150" y="120" width="40" height="10" as="geometry" />
        </mxCell>
        <mxCell id="qn5_UtcD68faMCWrC0vZ-15" value="&lt;font style=&quot;font-size: 9px;&quot;&gt;D3&lt;/font&gt;" style="text;html=1;align=center;verticalAlign=middle;whiteSpace=wrap;rounded=0;" vertex="1" parent="1">
          <mxGeometry x="150" y="130" width="40" height="10" as="geometry" />
        </mxCell>
        <mxCell id="qn5_UtcD68faMCWrC0vZ-16" value="&lt;font style=&quot;font-size: 9px;&quot;&gt;D4&lt;/font&gt;" style="text;html=1;align=center;verticalAlign=middle;whiteSpace=wrap;rounded=0;" vertex="1" parent="1">
          <mxGeometry x="150" y="140" width="40" height="10" as="geometry" />
        </mxCell>
        <mxCell id="qn5_UtcD68faMCWrC0vZ-17" value="&lt;font style=&quot;font-size: 9px;&quot;&gt;D5&lt;/font&gt;" style="text;html=1;align=center;verticalAlign=middle;whiteSpace=wrap;rounded=0;" vertex="1" parent="1">
          <mxGeometry x="150" y="150" width="40" height="10" as="geometry" />
        </mxCell>
        <mxCell id="qn5_UtcD68faMCWrC0vZ-18" value="&lt;font style=&quot;font-size: 9px;&quot;&gt;D6&lt;/font&gt;" style="text;html=1;align=center;verticalAlign=middle;whiteSpace=wrap;rounded=0;" vertex="1" parent="1">
          <mxGeometry x="150" y="160" width="40" height="10" as="geometry" />
        </mxCell>
        <mxCell id="qn5_UtcD68faMCWrC0vZ-19" value="&lt;font style=&quot;font-size: 9px;&quot;&gt;D7&lt;/font&gt;" style="text;html=1;align=center;verticalAlign=middle;whiteSpace=wrap;rounded=0;" vertex="1" parent="1">
          <mxGeometry x="150" y="170" width="40" height="10" as="geometry" />
        </mxCell>
        <mxCell id="qn5_UtcD68faMCWrC0vZ-20" value="" style="endArrow=none;html=1;rounded=0;" edge="1" parent="1">
          <mxGeometry width="50" height="50" relative="1" as="geometry">
            <mxPoint x="180" y="210" as="sourcePoint" />
            <mxPoint x="200" y="210" as="targetPoint" />
          </mxGeometry>
        </mxCell>
        <mxCell id="qn5_UtcD68faMCWrC0vZ-21" value="" style="endArrow=none;html=1;rounded=0;" edge="1" parent="1">
          <mxGeometry width="50" height="50" relative="1" as="geometry">
            <mxPoint x="180" y="220" as="sourcePoint" />
            <mxPoint x="200" y="220" as="targetPoint" />
            <Array as="points">
              <mxPoint x="180" y="220" />
            </Array>
          </mxGeometry>
        </mxCell>
        <mxCell id="qn5_UtcD68faMCWrC0vZ-22" value="" style="endArrow=none;html=1;rounded=0;" edge="1" parent="1">
          <mxGeometry width="50" height="50" relative="1" as="geometry">
            <mxPoint x="180" y="230" as="sourcePoint" />
            <mxPoint x="200" y="230" as="targetPoint" />
            <Array as="points">
              <mxPoint x="180" y="230" />
            </Array>
          </mxGeometry>
        </mxCell>
        <mxCell id="qn5_UtcD68faMCWrC0vZ-23" value="" style="endArrow=none;html=1;rounded=0;" edge="1" parent="1">
          <mxGeometry width="50" height="50" relative="1" as="geometry">
            <mxPoint x="180" y="240" as="sourcePoint" />
            <mxPoint x="200" y="240" as="targetPoint" />
            <Array as="points">
              <mxPoint x="180" y="240" />
            </Array>
          </mxGeometry>
        </mxCell>
        <mxCell id="qn5_UtcD68faMCWrC0vZ-24" value="" style="endArrow=none;html=1;rounded=0;" edge="1" parent="1">
          <mxGeometry width="50" height="50" relative="1" as="geometry">
            <mxPoint x="180" y="250" as="sourcePoint" />
            <mxPoint x="200" y="250" as="targetPoint" />
            <Array as="points">
              <mxPoint x="180" y="250" />
            </Array>
          </mxGeometry>
        </mxCell>
        <mxCell id="qn5_UtcD68faMCWrC0vZ-25" value="" style="endArrow=none;html=1;rounded=0;" edge="1" parent="1">
          <mxGeometry width="50" height="50" relative="1" as="geometry">
            <mxPoint x="180" y="260" as="sourcePoint" />
            <mxPoint x="200" y="260" as="targetPoint" />
            <Array as="points">
              <mxPoint x="180" y="260" />
            </Array>
          </mxGeometry>
        </mxCell>
        <mxCell id="qn5_UtcD68faMCWrC0vZ-26" value="" style="endArrow=none;html=1;rounded=0;" edge="1" parent="1">
          <mxGeometry width="50" height="50" relative="1" as="geometry">
            <mxPoint x="180" y="270" as="sourcePoint" />
            <mxPoint x="200" y="270" as="targetPoint" />
            <Array as="points">
              <mxPoint x="180" y="270" />
            </Array>
          </mxGeometry>
        </mxCell>
        <mxCell id="qn5_UtcD68faMCWrC0vZ-27" value="" style="endArrow=none;html=1;rounded=0;" edge="1" parent="1">
          <mxGeometry width="50" height="50" relative="1" as="geometry">
            <mxPoint x="180" y="280" as="sourcePoint" />
            <mxPoint x="200" y="280" as="targetPoint" />
            <Array as="points">
              <mxPoint x="180" y="280" />
            </Array>
          </mxGeometry>
        </mxCell>
        <mxCell id="qn5_UtcD68faMCWrC0vZ-28" value="&lt;font style=&quot;font-size: 9px;&quot;&gt;A0&lt;/font&gt;" style="text;html=1;align=center;verticalAlign=middle;whiteSpace=wrap;rounded=0;" vertex="1" parent="1">
          <mxGeometry x="150" y="200" width="40" height="10" as="geometry" />
        </mxCell>
        <mxCell id="qn5_UtcD68faMCWrC0vZ-29" value="&lt;font style=&quot;font-size: 9px;&quot;&gt;A1&lt;/font&gt;" style="text;html=1;align=center;verticalAlign=middle;whiteSpace=wrap;rounded=0;" vertex="1" parent="1">
          <mxGeometry x="150" y="210" width="40" height="10" as="geometry" />
        </mxCell>
        <mxCell id="qn5_UtcD68faMCWrC0vZ-30" value="&lt;font style=&quot;font-size: 9px;&quot;&gt;A2&lt;/font&gt;" style="text;html=1;align=center;verticalAlign=middle;whiteSpace=wrap;rounded=0;" vertex="1" parent="1">
          <mxGeometry x="150" y="220" width="40" height="10" as="geometry" />
        </mxCell>
        <mxCell id="qn5_UtcD68faMCWrC0vZ-31" value="&lt;font style=&quot;font-size: 9px;&quot;&gt;A3&lt;/font&gt;" style="text;html=1;align=center;verticalAlign=middle;whiteSpace=wrap;rounded=0;" vertex="1" parent="1">
          <mxGeometry x="150" y="230" width="40" height="10" as="geometry" />
        </mxCell>
        <mxCell id="qn5_UtcD68faMCWrC0vZ-32" value="&lt;font style=&quot;font-size: 9px;&quot;&gt;A4&lt;/font&gt;" style="text;html=1;align=center;verticalAlign=middle;whiteSpace=wrap;rounded=0;" vertex="1" parent="1">
          <mxGeometry x="150" y="240" width="40" height="10" as="geometry" />
        </mxCell>
        <mxCell id="qn5_UtcD68faMCWrC0vZ-33" value="&lt;font style=&quot;font-size: 9px;&quot;&gt;A5&lt;/font&gt;" style="text;html=1;align=center;verticalAlign=middle;whiteSpace=wrap;rounded=0;" vertex="1" parent="1">
          <mxGeometry x="150" y="250" width="40" height="10" as="geometry" />
        </mxCell>
        <mxCell id="qn5_UtcD68faMCWrC0vZ-34" value="&lt;font style=&quot;font-size: 9px;&quot;&gt;A6&lt;/font&gt;" style="text;html=1;align=center;verticalAlign=middle;whiteSpace=wrap;rounded=0;" vertex="1" parent="1">
          <mxGeometry x="150" y="260" width="40" height="10" as="geometry" />
        </mxCell>
        <mxCell id="qn5_UtcD68faMCWrC0vZ-35" value="&lt;font style=&quot;font-size: 9px;&quot;&gt;A7&lt;/font&gt;" style="text;html=1;align=center;verticalAlign=middle;whiteSpace=wrap;rounded=0;" vertex="1" parent="1">
          <mxGeometry x="150" y="270" width="40" height="10" as="geometry" />
        </mxCell>
        <mxCell id="qn5_UtcD68faMCWrC0vZ-52" value="" style="endArrow=none;html=1;rounded=0;" edge="1" parent="1">
          <mxGeometry width="50" height="50" relative="1" as="geometry">
            <mxPoint x="180" y="290" as="sourcePoint" />
            <mxPoint x="200" y="290" as="targetPoint" />
          </mxGeometry>
        </mxCell>
        <mxCell id="qn5_UtcD68faMCWrC0vZ-53" value="" style="endArrow=none;html=1;rounded=0;" edge="1" parent="1">
          <mxGeometry width="50" height="50" relative="1" as="geometry">
            <mxPoint x="180" y="300" as="sourcePoint" />
            <mxPoint x="200" y="300" as="targetPoint" />
            <Array as="points">
              <mxPoint x="180" y="300" />
            </Array>
          </mxGeometry>
        </mxCell>
        <mxCell id="qn5_UtcD68faMCWrC0vZ-54" value="" style="endArrow=none;html=1;rounded=0;" edge="1" parent="1">
          <mxGeometry width="50" height="50" relative="1" as="geometry">
            <mxPoint x="180" y="310" as="sourcePoint" />
            <mxPoint x="200" y="310" as="targetPoint" />
            <Array as="points">
              <mxPoint x="180" y="310" />
            </Array>
          </mxGeometry>
        </mxCell>
        <mxCell id="qn5_UtcD68faMCWrC0vZ-55" value="" style="endArrow=none;html=1;rounded=0;" edge="1" parent="1">
          <mxGeometry width="50" height="50" relative="1" as="geometry">
            <mxPoint x="180" y="320" as="sourcePoint" />
            <mxPoint x="200" y="320" as="targetPoint" />
            <Array as="points">
              <mxPoint x="180" y="320" />
            </Array>
          </mxGeometry>
        </mxCell>
        <mxCell id="qn5_UtcD68faMCWrC0vZ-56" value="" style="endArrow=none;html=1;rounded=0;" edge="1" parent="1">
          <mxGeometry width="50" height="50" relative="1" as="geometry">
            <mxPoint x="180" y="330" as="sourcePoint" />
            <mxPoint x="200" y="330" as="targetPoint" />
            <Array as="points">
              <mxPoint x="180" y="330" />
            </Array>
          </mxGeometry>
        </mxCell>
        <mxCell id="qn5_UtcD68faMCWrC0vZ-57" value="" style="endArrow=none;html=1;rounded=0;" edge="1" parent="1">
          <mxGeometry width="50" height="50" relative="1" as="geometry">
            <mxPoint x="180" y="340" as="sourcePoint" />
            <mxPoint x="200" y="340" as="targetPoint" />
            <Array as="points">
              <mxPoint x="180" y="340" />
            </Array>
          </mxGeometry>
        </mxCell>
        <mxCell id="qn5_UtcD68faMCWrC0vZ-58" value="" style="endArrow=none;html=1;rounded=0;" edge="1" parent="1">
          <mxGeometry width="50" height="50" relative="1" as="geometry">
            <mxPoint x="180" y="350" as="sourcePoint" />
            <mxPoint x="200" y="350" as="targetPoint" />
            <Array as="points">
              <mxPoint x="180" y="350" />
            </Array>
          </mxGeometry>
        </mxCell>
        <mxCell id="qn5_UtcD68faMCWrC0vZ-59" value="" style="endArrow=none;html=1;rounded=0;" edge="1" parent="1">
          <mxGeometry width="50" height="50" relative="1" as="geometry">
            <mxPoint x="180" y="360" as="sourcePoint" />
            <mxPoint x="200" y="360" as="targetPoint" />
            <Array as="points">
              <mxPoint x="180" y="360" />
            </Array>
          </mxGeometry>
        </mxCell>
        <mxCell id="qn5_UtcD68faMCWrC0vZ-60" value="&lt;font style=&quot;font-size: 9px;&quot;&gt;A8&lt;/font&gt;" style="text;html=1;align=center;verticalAlign=middle;whiteSpace=wrap;rounded=0;" vertex="1" parent="1">
          <mxGeometry x="150" y="280" width="40" height="10" as="geometry" />
        </mxCell>
        <mxCell id="qn5_UtcD68faMCWrC0vZ-61" value="&lt;font style=&quot;font-size: 9px;&quot;&gt;A9&lt;/font&gt;" style="text;html=1;align=center;verticalAlign=middle;whiteSpace=wrap;rounded=0;" vertex="1" parent="1">
          <mxGeometry x="150" y="290" width="40" height="10" as="geometry" />
        </mxCell>
        <mxCell id="qn5_UtcD68faMCWrC0vZ-62" value="&lt;font style=&quot;font-size: 9px;&quot;&gt;A10&lt;/font&gt;" style="text;html=1;align=center;verticalAlign=middle;whiteSpace=wrap;rounded=0;" vertex="1" parent="1">
          <mxGeometry x="150" y="300" width="40" height="10" as="geometry" />
        </mxCell>
        <mxCell id="qn5_UtcD68faMCWrC0vZ-63" value="&lt;font style=&quot;font-size: 9px;&quot;&gt;A11&lt;/font&gt;" style="text;html=1;align=center;verticalAlign=middle;whiteSpace=wrap;rounded=0;" vertex="1" parent="1">
          <mxGeometry x="150" y="310" width="40" height="10" as="geometry" />
        </mxCell>
        <mxCell id="qn5_UtcD68faMCWrC0vZ-64" value="&lt;font style=&quot;font-size: 9px;&quot;&gt;A12&lt;/font&gt;" style="text;html=1;align=center;verticalAlign=middle;whiteSpace=wrap;rounded=0;" vertex="1" parent="1">
          <mxGeometry x="150" y="320" width="40" height="10" as="geometry" />
        </mxCell>
        <mxCell id="qn5_UtcD68faMCWrC0vZ-65" value="&lt;font style=&quot;font-size: 9px;&quot;&gt;A13&lt;/font&gt;" style="text;html=1;align=center;verticalAlign=middle;whiteSpace=wrap;rounded=0;" vertex="1" parent="1">
          <mxGeometry x="150" y="330" width="40" height="10" as="geometry" />
        </mxCell>
        <mxCell id="qn5_UtcD68faMCWrC0vZ-66" value="&lt;font style=&quot;font-size: 9px;&quot;&gt;A14&lt;/font&gt;" style="text;html=1;align=center;verticalAlign=middle;whiteSpace=wrap;rounded=0;" vertex="1" parent="1">
          <mxGeometry x="150" y="340" width="40" height="10" as="geometry" />
        </mxCell>
        <mxCell id="qn5_UtcD68faMCWrC0vZ-67" value="&lt;font style=&quot;font-size: 9px;&quot;&gt;A15&lt;/font&gt;" style="text;html=1;align=center;verticalAlign=middle;whiteSpace=wrap;rounded=0;" vertex="1" parent="1">
          <mxGeometry x="150" y="350" width="40" height="10" as="geometry" />
        </mxCell>
        <mxCell id="qn5_UtcD68faMCWrC0vZ-68" value="" style="endArrow=none;html=1;rounded=0;" edge="1" parent="1">
          <mxGeometry width="50" height="50" relative="1" as="geometry">
            <mxPoint x="180" y="400" as="sourcePoint" />
            <mxPoint x="200" y="400" as="targetPoint" />
          </mxGeometry>
        </mxCell>
        <mxCell id="qn5_UtcD68faMCWrC0vZ-69" value="" style="endArrow=none;html=1;rounded=0;" edge="1" parent="1">
          <mxGeometry width="50" height="50" relative="1" as="geometry">
            <mxPoint x="180" y="410" as="sourcePoint" />
            <mxPoint x="200" y="410" as="targetPoint" />
            <Array as="points">
              <mxPoint x="180" y="410" />
            </Array>
          </mxGeometry>
        </mxCell>
        <mxCell id="qn5_UtcD68faMCWrC0vZ-70" value="" style="endArrow=none;html=1;rounded=0;" edge="1" parent="1">
          <mxGeometry width="50" height="50" relative="1" as="geometry">
            <mxPoint x="180" y="420" as="sourcePoint" />
            <mxPoint x="200" y="420" as="targetPoint" />
            <Array as="points">
              <mxPoint x="180" y="420" />
            </Array>
          </mxGeometry>
        </mxCell>
        <mxCell id="qn5_UtcD68faMCWrC0vZ-71" value="" style="endArrow=none;html=1;rounded=0;" edge="1" parent="1">
          <mxGeometry width="50" height="50" relative="1" as="geometry">
            <mxPoint x="180" y="430" as="sourcePoint" />
            <mxPoint x="200" y="430" as="targetPoint" />
            <Array as="points">
              <mxPoint x="180" y="430" />
            </Array>
          </mxGeometry>
        </mxCell>
        <mxCell id="qn5_UtcD68faMCWrC0vZ-72" value="" style="endArrow=none;html=1;rounded=0;" edge="1" parent="1">
          <mxGeometry width="50" height="50" relative="1" as="geometry">
            <mxPoint x="180" y="480" as="sourcePoint" />
            <mxPoint x="200" y="480" as="targetPoint" />
            <Array as="points">
              <mxPoint x="180" y="480" />
            </Array>
          </mxGeometry>
        </mxCell>
        <mxCell id="qn5_UtcD68faMCWrC0vZ-73" value="" style="endArrow=none;html=1;rounded=0;" edge="1" parent="1">
          <mxGeometry width="50" height="50" relative="1" as="geometry">
            <mxPoint x="180" y="520" as="sourcePoint" />
            <mxPoint x="200" y="520" as="targetPoint" />
            <Array as="points">
              <mxPoint x="180" y="520" />
            </Array>
          </mxGeometry>
        </mxCell>
        <mxCell id="qn5_UtcD68faMCWrC0vZ-74" value="" style="endArrow=none;html=1;rounded=0;" edge="1" parent="1">
          <mxGeometry width="50" height="50" relative="1" as="geometry">
            <mxPoint x="180" y="530" as="sourcePoint" />
            <mxPoint x="200" y="530" as="targetPoint" />
            <Array as="points">
              <mxPoint x="180" y="530" />
            </Array>
          </mxGeometry>
        </mxCell>
        <mxCell id="qn5_UtcD68faMCWrC0vZ-75" value="" style="endArrow=none;html=1;rounded=0;" edge="1" parent="1">
          <mxGeometry width="50" height="50" relative="1" as="geometry">
            <mxPoint x="180" y="540" as="sourcePoint" />
            <mxPoint x="200" y="540" as="targetPoint" />
            <Array as="points">
              <mxPoint x="180" y="540" />
            </Array>
          </mxGeometry>
        </mxCell>
        <mxCell id="qn5_UtcD68faMCWrC0vZ-76" value="&lt;font style=&quot;font-size: 9px;&quot;&gt;MREQ&lt;/font&gt;" style="text;html=1;align=center;verticalAlign=middle;whiteSpace=wrap;rounded=0;" vertex="1" parent="1">
          <mxGeometry x="140" y="390" width="40" height="10" as="geometry" />
        </mxCell>
        <mxCell id="qn5_UtcD68faMCWrC0vZ-77" value="&lt;font style=&quot;font-size: 9px;&quot;&gt;IORQ&lt;/font&gt;" style="text;html=1;align=center;verticalAlign=middle;whiteSpace=wrap;rounded=0;" vertex="1" parent="1">
          <mxGeometry x="140" y="400" width="40" height="10" as="geometry" />
        </mxCell>
        <mxCell id="qn5_UtcD68faMCWrC0vZ-79" value="&lt;font style=&quot;font-size: 9px;&quot;&gt;WR&lt;/font&gt;" style="text;html=1;align=center;verticalAlign=middle;whiteSpace=wrap;rounded=0;" vertex="1" parent="1">
          <mxGeometry x="140" y="420" width="40" height="10" as="geometry" />
        </mxCell>
        <mxCell id="qn5_UtcD68faMCWrC0vZ-80" value="&lt;font style=&quot;font-size: 9px;&quot;&gt;BUSAK&lt;/font&gt;" style="text;html=1;align=center;verticalAlign=middle;whiteSpace=wrap;rounded=0;" vertex="1" parent="1">
          <mxGeometry x="140" y="470" width="40" height="10" as="geometry" />
        </mxCell>
        <mxCell id="qn5_UtcD68faMCWrC0vZ-81" value="&lt;font style=&quot;font-size: 9px;&quot;&gt;M1&lt;/font&gt;" style="text;html=1;align=center;verticalAlign=middle;whiteSpace=wrap;rounded=0;" vertex="1" parent="1">
          <mxGeometry x="150" y="510" width="40" height="10" as="geometry" />
        </mxCell>
        <mxCell id="qn5_UtcD68faMCWrC0vZ-82" value="&lt;font style=&quot;font-size: 9px;&quot;&gt;INT&lt;/font&gt;" style="text;html=1;align=center;verticalAlign=middle;whiteSpace=wrap;rounded=0;" vertex="1" parent="1">
          <mxGeometry x="150" y="520" width="40" height="10" as="geometry" />
        </mxCell>
        <mxCell id="qn5_UtcD68faMCWrC0vZ-83" value="&lt;font style=&quot;font-size: 9px;&quot;&gt;CLK&lt;/font&gt;" style="text;html=1;align=center;verticalAlign=middle;whiteSpace=wrap;rounded=0;" vertex="1" parent="1">
          <mxGeometry x="150" y="530" width="40" height="10" as="geometry" />
        </mxCell>
        <mxCell id="qn5_UtcD68faMCWrC0vZ-84" value="&lt;font style=&quot;font-size: 9px;&quot;&gt;RD&lt;/font&gt;" style="text;html=1;align=center;verticalAlign=middle;whiteSpace=wrap;rounded=0;" vertex="1" parent="1">
          <mxGeometry x="140" y="410" width="40" height="10" as="geometry" />
        </mxCell>
        <mxCell id="qn5_UtcD68faMCWrC0vZ-85" value="Z80CPU" style="text;html=1;align=center;verticalAlign=middle;whiteSpace=wrap;rounded=0;" vertex="1" parent="1">
          <mxGeometry x="90" y="70" width="60" height="30" as="geometry" />
        </mxCell>
        <mxCell id="qn5_UtcD68faMCWrC0vZ-86" value="" style="rounded=0;whiteSpace=wrap;html=1;" vertex="1" parent="1">
          <mxGeometry x="350" y="100" width="81" height="270" as="geometry" />
        </mxCell>
        <mxCell id="qn5_UtcD68faMCWrC0vZ-87" value="" style="endArrow=none;html=1;rounded=0;" edge="1" parent="1">
          <mxGeometry width="50" height="50" relative="1" as="geometry">
            <mxPoint x="330" y="110" as="sourcePoint" />
            <mxPoint x="350" y="110" as="targetPoint" />
          </mxGeometry>
        </mxCell>
        <mxCell id="qn5_UtcD68faMCWrC0vZ-88" value="" style="endArrow=none;html=1;rounded=0;" edge="1" parent="1">
          <mxGeometry width="50" height="50" relative="1" as="geometry">
            <mxPoint x="330" y="120" as="sourcePoint" />
            <mxPoint x="350" y="120" as="targetPoint" />
          </mxGeometry>
        </mxCell>
        <mxCell id="qn5_UtcD68faMCWrC0vZ-89" value="" style="endArrow=none;html=1;rounded=0;" edge="1" parent="1">
          <mxGeometry width="50" height="50" relative="1" as="geometry">
            <mxPoint x="330" y="130" as="sourcePoint" />
            <mxPoint x="350" y="130" as="targetPoint" />
          </mxGeometry>
        </mxCell>
        <mxCell id="qn5_UtcD68faMCWrC0vZ-90" value="" style="endArrow=none;html=1;rounded=0;" edge="1" parent="1">
          <mxGeometry width="50" height="50" relative="1" as="geometry">
            <mxPoint x="330" y="140" as="sourcePoint" />
            <mxPoint x="350" y="140" as="targetPoint" />
          </mxGeometry>
        </mxCell>
        <mxCell id="qn5_UtcD68faMCWrC0vZ-91" value="" style="endArrow=none;html=1;rounded=0;" edge="1" parent="1">
          <mxGeometry width="50" height="50" relative="1" as="geometry">
            <mxPoint x="330" y="150" as="sourcePoint" />
            <mxPoint x="350" y="150" as="targetPoint" />
          </mxGeometry>
        </mxCell>
        <mxCell id="qn5_UtcD68faMCWrC0vZ-92" value="" style="endArrow=none;html=1;rounded=0;" edge="1" parent="1">
          <mxGeometry width="50" height="50" relative="1" as="geometry">
            <mxPoint x="330" y="160" as="sourcePoint" />
            <mxPoint x="350" y="160" as="targetPoint" />
          </mxGeometry>
        </mxCell>
        <mxCell id="qn5_UtcD68faMCWrC0vZ-93" value="" style="endArrow=none;html=1;rounded=0;" edge="1" parent="1">
          <mxGeometry width="50" height="50" relative="1" as="geometry">
            <mxPoint x="330" y="170" as="sourcePoint" />
            <mxPoint x="350" y="170" as="targetPoint" />
          </mxGeometry>
        </mxCell>
        <mxCell id="qn5_UtcD68faMCWrC0vZ-94" value="" style="endArrow=none;html=1;rounded=0;" edge="1" parent="1">
          <mxGeometry width="50" height="50" relative="1" as="geometry">
            <mxPoint x="330" y="180" as="sourcePoint" />
            <mxPoint x="350" y="180" as="targetPoint" />
          </mxGeometry>
        </mxCell>
        <mxCell id="qn5_UtcD68faMCWrC0vZ-103" value="&lt;font style=&quot;font-size: 9px;&quot;&gt;D0&lt;/font&gt;" style="text;html=1;align=center;verticalAlign=middle;whiteSpace=wrap;rounded=0;" vertex="1" parent="1">
          <mxGeometry x="340" y="100" width="40" height="10" as="geometry" />
        </mxCell>
        <mxCell id="qn5_UtcD68faMCWrC0vZ-104" value="&lt;font style=&quot;font-size: 9px;&quot;&gt;D1&lt;/font&gt;" style="text;html=1;align=center;verticalAlign=middle;whiteSpace=wrap;rounded=0;" vertex="1" parent="1">
          <mxGeometry x="340" y="110" width="40" height="10" as="geometry" />
        </mxCell>
        <mxCell id="qn5_UtcD68faMCWrC0vZ-105" value="&lt;font style=&quot;font-size: 9px;&quot;&gt;D2&lt;/font&gt;" style="text;html=1;align=center;verticalAlign=middle;whiteSpace=wrap;rounded=0;" vertex="1" parent="1">
          <mxGeometry x="340" y="120" width="40" height="10" as="geometry" />
        </mxCell>
        <mxCell id="qn5_UtcD68faMCWrC0vZ-106" value="&lt;font style=&quot;font-size: 9px;&quot;&gt;D3&lt;/font&gt;" style="text;html=1;align=center;verticalAlign=middle;whiteSpace=wrap;rounded=0;" vertex="1" parent="1">
          <mxGeometry x="340" y="130" width="40" height="10" as="geometry" />
        </mxCell>
        <mxCell id="qn5_UtcD68faMCWrC0vZ-107" value="&lt;font style=&quot;font-size: 9px;&quot;&gt;D4&lt;/font&gt;" style="text;html=1;align=center;verticalAlign=middle;whiteSpace=wrap;rounded=0;" vertex="1" parent="1">
          <mxGeometry x="340" y="140" width="40" height="10" as="geometry" />
        </mxCell>
        <mxCell id="qn5_UtcD68faMCWrC0vZ-108" value="&lt;font style=&quot;font-size: 9px;&quot;&gt;D5&lt;/font&gt;" style="text;html=1;align=center;verticalAlign=middle;whiteSpace=wrap;rounded=0;" vertex="1" parent="1">
          <mxGeometry x="340" y="150" width="40" height="10" as="geometry" />
        </mxCell>
        <mxCell id="qn5_UtcD68faMCWrC0vZ-109" value="&lt;font style=&quot;font-size: 9px;&quot;&gt;D6&lt;/font&gt;" style="text;html=1;align=center;verticalAlign=middle;whiteSpace=wrap;rounded=0;" vertex="1" parent="1">
          <mxGeometry x="340" y="160" width="40" height="10" as="geometry" />
        </mxCell>
        <mxCell id="qn5_UtcD68faMCWrC0vZ-110" value="&lt;font style=&quot;font-size: 9px;&quot;&gt;D7&lt;/font&gt;" style="text;html=1;align=center;verticalAlign=middle;whiteSpace=wrap;rounded=0;" vertex="1" parent="1">
          <mxGeometry x="340" y="170" width="40" height="10" as="geometry" />
        </mxCell>
        <mxCell id="qn5_UtcD68faMCWrC0vZ-143" value="" style="endArrow=none;html=1;rounded=0;" edge="1" parent="1">
          <mxGeometry width="50" height="50" relative="1" as="geometry">
            <mxPoint x="330" y="210" as="sourcePoint" />
            <mxPoint x="350" y="210" as="targetPoint" />
          </mxGeometry>
        </mxCell>
        <mxCell id="qn5_UtcD68faMCWrC0vZ-144" value="" style="endArrow=none;html=1;rounded=0;" edge="1" parent="1">
          <mxGeometry width="50" height="50" relative="1" as="geometry">
            <mxPoint x="330" y="220" as="sourcePoint" />
            <mxPoint x="350" y="220" as="targetPoint" />
            <Array as="points">
              <mxPoint x="330" y="220" />
            </Array>
          </mxGeometry>
        </mxCell>
        <mxCell id="qn5_UtcD68faMCWrC0vZ-145" value="" style="endArrow=none;html=1;rounded=0;" edge="1" parent="1">
          <mxGeometry width="50" height="50" relative="1" as="geometry">
            <mxPoint x="330" y="230" as="sourcePoint" />
            <mxPoint x="350" y="230" as="targetPoint" />
            <Array as="points">
              <mxPoint x="330" y="230" />
            </Array>
          </mxGeometry>
        </mxCell>
        <mxCell id="qn5_UtcD68faMCWrC0vZ-146" value="" style="endArrow=none;html=1;rounded=0;" edge="1" parent="1">
          <mxGeometry width="50" height="50" relative="1" as="geometry">
            <mxPoint x="330" y="240" as="sourcePoint" />
            <mxPoint x="350" y="240" as="targetPoint" />
            <Array as="points">
              <mxPoint x="330" y="240" />
            </Array>
          </mxGeometry>
        </mxCell>
        <mxCell id="qn5_UtcD68faMCWrC0vZ-147" value="" style="endArrow=none;html=1;rounded=0;" edge="1" parent="1">
          <mxGeometry width="50" height="50" relative="1" as="geometry">
            <mxPoint x="330" y="250" as="sourcePoint" />
            <mxPoint x="350" y="250" as="targetPoint" />
            <Array as="points">
              <mxPoint x="330" y="250" />
            </Array>
          </mxGeometry>
        </mxCell>
        <mxCell id="qn5_UtcD68faMCWrC0vZ-148" value="" style="endArrow=none;html=1;rounded=0;" edge="1" parent="1">
          <mxGeometry width="50" height="50" relative="1" as="geometry">
            <mxPoint x="330" y="260" as="sourcePoint" />
            <mxPoint x="350" y="260" as="targetPoint" />
            <Array as="points">
              <mxPoint x="330" y="260" />
            </Array>
          </mxGeometry>
        </mxCell>
        <mxCell id="qn5_UtcD68faMCWrC0vZ-149" value="" style="endArrow=none;html=1;rounded=0;" edge="1" parent="1">
          <mxGeometry width="50" height="50" relative="1" as="geometry">
            <mxPoint x="330" y="270" as="sourcePoint" />
            <mxPoint x="350" y="270" as="targetPoint" />
            <Array as="points">
              <mxPoint x="330" y="270" />
            </Array>
          </mxGeometry>
        </mxCell>
        <mxCell id="qn5_UtcD68faMCWrC0vZ-150" value="" style="endArrow=none;html=1;rounded=0;" edge="1" parent="1">
          <mxGeometry width="50" height="50" relative="1" as="geometry">
            <mxPoint x="330" y="280" as="sourcePoint" />
            <mxPoint x="350" y="280" as="targetPoint" />
            <Array as="points">
              <mxPoint x="330" y="280" />
            </Array>
          </mxGeometry>
        </mxCell>
        <mxCell id="qn5_UtcD68faMCWrC0vZ-151" value="&lt;font style=&quot;font-size: 9px;&quot;&gt;A0&lt;/font&gt;" style="text;html=1;align=center;verticalAlign=middle;whiteSpace=wrap;rounded=0;" vertex="1" parent="1">
          <mxGeometry x="340" y="200" width="40" height="10" as="geometry" />
        </mxCell>
        <mxCell id="qn5_UtcD68faMCWrC0vZ-152" value="&lt;font style=&quot;font-size: 9px;&quot;&gt;A1&lt;/font&gt;" style="text;html=1;align=center;verticalAlign=middle;whiteSpace=wrap;rounded=0;" vertex="1" parent="1">
          <mxGeometry x="340" y="210" width="40" height="10" as="geometry" />
        </mxCell>
        <mxCell id="qn5_UtcD68faMCWrC0vZ-153" value="&lt;font style=&quot;font-size: 9px;&quot;&gt;A2&lt;/font&gt;" style="text;html=1;align=center;verticalAlign=middle;whiteSpace=wrap;rounded=0;" vertex="1" parent="1">
          <mxGeometry x="340" y="220" width="40" height="10" as="geometry" />
        </mxCell>
        <mxCell id="qn5_UtcD68faMCWrC0vZ-154" value="&lt;font style=&quot;font-size: 9px;&quot;&gt;A3&lt;/font&gt;" style="text;html=1;align=center;verticalAlign=middle;whiteSpace=wrap;rounded=0;" vertex="1" parent="1">
          <mxGeometry x="340" y="230" width="40" height="10" as="geometry" />
        </mxCell>
        <mxCell id="qn5_UtcD68faMCWrC0vZ-155" value="&lt;font style=&quot;font-size: 9px;&quot;&gt;A4&lt;/font&gt;" style="text;html=1;align=center;verticalAlign=middle;whiteSpace=wrap;rounded=0;" vertex="1" parent="1">
          <mxGeometry x="340" y="240" width="40" height="10" as="geometry" />
        </mxCell>
        <mxCell id="qn5_UtcD68faMCWrC0vZ-156" value="&lt;font style=&quot;font-size: 9px;&quot;&gt;A5&lt;/font&gt;" style="text;html=1;align=center;verticalAlign=middle;whiteSpace=wrap;rounded=0;" vertex="1" parent="1">
          <mxGeometry x="340" y="250" width="40" height="10" as="geometry" />
        </mxCell>
        <mxCell id="qn5_UtcD68faMCWrC0vZ-157" value="&lt;font style=&quot;font-size: 9px;&quot;&gt;A6&lt;/font&gt;" style="text;html=1;align=center;verticalAlign=middle;whiteSpace=wrap;rounded=0;" vertex="1" parent="1">
          <mxGeometry x="340" y="260" width="40" height="10" as="geometry" />
        </mxCell>
        <mxCell id="qn5_UtcD68faMCWrC0vZ-158" value="&lt;font style=&quot;font-size: 9px;&quot;&gt;A7&lt;/font&gt;" style="text;html=1;align=center;verticalAlign=middle;whiteSpace=wrap;rounded=0;" vertex="1" parent="1">
          <mxGeometry x="340" y="270" width="40" height="10" as="geometry" />
        </mxCell>
        <mxCell id="qn5_UtcD68faMCWrC0vZ-159" value="" style="endArrow=none;html=1;rounded=0;" edge="1" parent="1">
          <mxGeometry width="50" height="50" relative="1" as="geometry">
            <mxPoint x="330" y="290" as="sourcePoint" />
            <mxPoint x="350" y="290" as="targetPoint" />
          </mxGeometry>
        </mxCell>
        <mxCell id="qn5_UtcD68faMCWrC0vZ-160" value="" style="endArrow=none;html=1;rounded=0;" edge="1" parent="1">
          <mxGeometry width="50" height="50" relative="1" as="geometry">
            <mxPoint x="330" y="300" as="sourcePoint" />
            <mxPoint x="350" y="300" as="targetPoint" />
            <Array as="points">
              <mxPoint x="330" y="300" />
            </Array>
          </mxGeometry>
        </mxCell>
        <mxCell id="qn5_UtcD68faMCWrC0vZ-161" value="" style="endArrow=none;html=1;rounded=0;" edge="1" parent="1">
          <mxGeometry width="50" height="50" relative="1" as="geometry">
            <mxPoint x="330" y="310" as="sourcePoint" />
            <mxPoint x="350" y="310" as="targetPoint" />
            <Array as="points">
              <mxPoint x="330" y="310" />
            </Array>
          </mxGeometry>
        </mxCell>
        <mxCell id="qn5_UtcD68faMCWrC0vZ-164" value="" style="endArrow=none;html=1;rounded=0;" edge="1" parent="1">
          <mxGeometry width="50" height="50" relative="1" as="geometry">
            <mxPoint x="330" y="340" as="sourcePoint" />
            <mxPoint x="350" y="340" as="targetPoint" />
            <Array as="points">
              <mxPoint x="330" y="340" />
            </Array>
          </mxGeometry>
        </mxCell>
        <mxCell id="qn5_UtcD68faMCWrC0vZ-165" value="" style="endArrow=none;html=1;rounded=0;" edge="1" parent="1">
          <mxGeometry width="50" height="50" relative="1" as="geometry">
            <mxPoint x="330" y="350" as="sourcePoint" />
            <mxPoint x="350" y="350" as="targetPoint" />
            <Array as="points">
              <mxPoint x="330" y="350" />
            </Array>
          </mxGeometry>
        </mxCell>
        <mxCell id="qn5_UtcD68faMCWrC0vZ-166" value="" style="endArrow=none;html=1;rounded=0;" edge="1" parent="1">
          <mxGeometry width="50" height="50" relative="1" as="geometry">
            <mxPoint x="330" y="360" as="sourcePoint" />
            <mxPoint x="350" y="360" as="targetPoint" />
            <Array as="points">
              <mxPoint x="330" y="360" />
            </Array>
          </mxGeometry>
        </mxCell>
        <mxCell id="qn5_UtcD68faMCWrC0vZ-167" value="&lt;font style=&quot;font-size: 9px;&quot;&gt;A8&lt;/font&gt;" style="text;html=1;align=center;verticalAlign=middle;whiteSpace=wrap;rounded=0;" vertex="1" parent="1">
          <mxGeometry x="340" y="280" width="40" height="10" as="geometry" />
        </mxCell>
        <mxCell id="qn5_UtcD68faMCWrC0vZ-168" value="&lt;font style=&quot;font-size: 9px;&quot;&gt;A9&lt;/font&gt;" style="text;html=1;align=center;verticalAlign=middle;whiteSpace=wrap;rounded=0;" vertex="1" parent="1">
          <mxGeometry x="340" y="290" width="40" height="10" as="geometry" />
        </mxCell>
        <mxCell id="qn5_UtcD68faMCWrC0vZ-169" value="&lt;font style=&quot;font-size: 9px;&quot;&gt;A10&lt;/font&gt;" style="text;html=1;align=center;verticalAlign=middle;whiteSpace=wrap;rounded=0;" vertex="1" parent="1">
          <mxGeometry x="340" y="300" width="40" height="10" as="geometry" />
        </mxCell>
        <mxCell id="qn5_UtcD68faMCWrC0vZ-172" value="&lt;font style=&quot;font-size: 9px;&quot;&gt;CE&lt;/font&gt;" style="text;html=1;align=center;verticalAlign=middle;whiteSpace=wrap;rounded=0;" vertex="1" parent="1">
          <mxGeometry x="340" y="330" width="40" height="10" as="geometry" />
        </mxCell>
        <mxCell id="qn5_UtcD68faMCWrC0vZ-173" value="&lt;font style=&quot;font-size: 9px;&quot;&gt;WE&lt;/font&gt;" style="text;html=1;align=center;verticalAlign=middle;whiteSpace=wrap;rounded=0;" vertex="1" parent="1">
          <mxGeometry x="340" y="340" width="40" height="10" as="geometry" />
        </mxCell>
        <mxCell id="qn5_UtcD68faMCWrC0vZ-174" value="&lt;font style=&quot;font-size: 9px;&quot;&gt;RD&lt;/font&gt;" style="text;html=1;align=center;verticalAlign=middle;whiteSpace=wrap;rounded=0;" vertex="1" parent="1">
          <mxGeometry x="340" y="350" width="40" height="10" as="geometry" />
        </mxCell>
        <mxCell id="qn5_UtcD68faMCWrC0vZ-176" value="TC5517" style="text;html=1;align=center;verticalAlign=middle;whiteSpace=wrap;rounded=0;" vertex="1" parent="1">
          <mxGeometry x="354" y="65" width="60" height="35" as="geometry" />
        </mxCell>
        <mxCell id="qn5_UtcD68faMCWrC0vZ-177" value="" style="endArrow=none;html=1;rounded=0;" edge="1" parent="1">
          <mxGeometry width="50" height="50" relative="1" as="geometry">
            <mxPoint x="330" y="320" as="sourcePoint" />
            <mxPoint x="330" y="290" as="targetPoint" />
          </mxGeometry>
        </mxCell>
        <mxCell id="qn5_UtcD68faMCWrC0vZ-178" value="" style="endArrow=none;html=1;rounded=0;" edge="1" parent="1">
          <mxGeometry width="50" height="50" relative="1" as="geometry">
            <mxPoint x="320" y="319.52" as="sourcePoint" />
            <mxPoint x="340" y="319.52" as="targetPoint" />
          </mxGeometry>
        </mxCell>
        <mxCell id="qn5_UtcD68faMCWrC0vZ-179" value="" style="endArrow=none;html=1;rounded=0;" edge="1" parent="1">
          <mxGeometry width="50" height="50" relative="1" as="geometry">
            <mxPoint x="200" y="110" as="sourcePoint" />
            <mxPoint x="330" y="110" as="targetPoint" />
          </mxGeometry>
        </mxCell>
        <mxCell id="qn5_UtcD68faMCWrC0vZ-181" value="" style="endArrow=none;html=1;rounded=0;" edge="1" parent="1">
          <mxGeometry width="50" height="50" relative="1" as="geometry">
            <mxPoint x="200" y="120" as="sourcePoint" />
            <mxPoint x="330" y="120" as="targetPoint" />
          </mxGeometry>
        </mxCell>
        <mxCell id="qn5_UtcD68faMCWrC0vZ-182" value="" style="endArrow=none;html=1;rounded=0;" edge="1" parent="1">
          <mxGeometry width="50" height="50" relative="1" as="geometry">
            <mxPoint x="200" y="130" as="sourcePoint" />
            <mxPoint x="330" y="130" as="targetPoint" />
          </mxGeometry>
        </mxCell>
        <mxCell id="qn5_UtcD68faMCWrC0vZ-183" value="" style="endArrow=none;html=1;rounded=0;" edge="1" parent="1">
          <mxGeometry width="50" height="50" relative="1" as="geometry">
            <mxPoint x="200" y="140" as="sourcePoint" />
            <mxPoint x="330" y="140" as="targetPoint" />
          </mxGeometry>
        </mxCell>
        <mxCell id="qn5_UtcD68faMCWrC0vZ-185" value="" style="endArrow=none;html=1;rounded=0;" edge="1" parent="1">
          <mxGeometry width="50" height="50" relative="1" as="geometry">
            <mxPoint x="200" y="150" as="sourcePoint" />
            <mxPoint x="330" y="150" as="targetPoint" />
          </mxGeometry>
        </mxCell>
        <mxCell id="qn5_UtcD68faMCWrC0vZ-186" value="" style="endArrow=none;html=1;rounded=0;" edge="1" parent="1">
          <mxGeometry width="50" height="50" relative="1" as="geometry">
            <mxPoint x="200" y="160" as="sourcePoint" />
            <mxPoint x="330" y="160" as="targetPoint" />
          </mxGeometry>
        </mxCell>
        <mxCell id="qn5_UtcD68faMCWrC0vZ-187" value="" style="endArrow=none;html=1;rounded=0;" edge="1" parent="1">
          <mxGeometry width="50" height="50" relative="1" as="geometry">
            <mxPoint x="200" y="170" as="sourcePoint" />
            <mxPoint x="330" y="170" as="targetPoint" />
          </mxGeometry>
        </mxCell>
        <mxCell id="qn5_UtcD68faMCWrC0vZ-188" value="" style="endArrow=none;html=1;rounded=0;" edge="1" parent="1">
          <mxGeometry width="50" height="50" relative="1" as="geometry">
            <mxPoint x="200" y="180" as="sourcePoint" />
            <mxPoint x="330" y="180" as="targetPoint" />
          </mxGeometry>
        </mxCell>
        <mxCell id="qn5_UtcD68faMCWrC0vZ-189" value="" style="endArrow=none;html=1;rounded=0;" edge="1" parent="1">
          <mxGeometry width="50" height="50" relative="1" as="geometry">
            <mxPoint x="200" y="210" as="sourcePoint" />
            <mxPoint x="330" y="210" as="targetPoint" />
          </mxGeometry>
        </mxCell>
        <mxCell id="qn5_UtcD68faMCWrC0vZ-190" value="" style="endArrow=none;html=1;rounded=0;" edge="1" parent="1">
          <mxGeometry width="50" height="50" relative="1" as="geometry">
            <mxPoint x="200" y="220" as="sourcePoint" />
            <mxPoint x="330" y="220" as="targetPoint" />
          </mxGeometry>
        </mxCell>
        <mxCell id="qn5_UtcD68faMCWrC0vZ-191" value="" style="endArrow=none;html=1;rounded=0;" edge="1" parent="1">
          <mxGeometry width="50" height="50" relative="1" as="geometry">
            <mxPoint x="200" y="230" as="sourcePoint" />
            <mxPoint x="330" y="230" as="targetPoint" />
          </mxGeometry>
        </mxCell>
        <mxCell id="qn5_UtcD68faMCWrC0vZ-192" value="" style="endArrow=none;html=1;rounded=0;" edge="1" parent="1">
          <mxGeometry width="50" height="50" relative="1" as="geometry">
            <mxPoint x="200" y="240" as="sourcePoint" />
            <mxPoint x="330" y="240" as="targetPoint" />
          </mxGeometry>
        </mxCell>
        <mxCell id="qn5_UtcD68faMCWrC0vZ-193" value="" style="endArrow=none;html=1;rounded=0;" edge="1" parent="1">
          <mxGeometry width="50" height="50" relative="1" as="geometry">
            <mxPoint x="200" y="250" as="sourcePoint" />
            <mxPoint x="330" y="250" as="targetPoint" />
          </mxGeometry>
        </mxCell>
        <mxCell id="qn5_UtcD68faMCWrC0vZ-194" value="" style="endArrow=none;html=1;rounded=0;" edge="1" parent="1">
          <mxGeometry width="50" height="50" relative="1" as="geometry">
            <mxPoint x="200" y="260" as="sourcePoint" />
            <mxPoint x="330" y="260" as="targetPoint" />
          </mxGeometry>
        </mxCell>
        <mxCell id="qn5_UtcD68faMCWrC0vZ-195" value="" style="endArrow=none;html=1;rounded=0;" edge="1" parent="1">
          <mxGeometry width="50" height="50" relative="1" as="geometry">
            <mxPoint x="200" y="270" as="sourcePoint" />
            <mxPoint x="330" y="270" as="targetPoint" />
          </mxGeometry>
        </mxCell>
        <mxCell id="qn5_UtcD68faMCWrC0vZ-196" value="" style="endArrow=none;html=1;rounded=0;" edge="1" parent="1">
          <mxGeometry width="50" height="50" relative="1" as="geometry">
            <mxPoint x="200" y="280" as="sourcePoint" />
            <mxPoint x="330" y="280" as="targetPoint" />
          </mxGeometry>
        </mxCell>
        <mxCell id="qn5_UtcD68faMCWrC0vZ-198" value="" style="endArrow=none;html=1;rounded=0;" edge="1" parent="1">
          <mxGeometry width="50" height="50" relative="1" as="geometry">
            <mxPoint x="200" y="420" as="sourcePoint" />
            <mxPoint x="280" y="420" as="targetPoint" />
          </mxGeometry>
        </mxCell>
        <mxCell id="qn5_UtcD68faMCWrC0vZ-199" value="" style="endArrow=none;html=1;rounded=0;" edge="1" parent="1">
          <mxGeometry width="50" height="50" relative="1" as="geometry">
            <mxPoint x="280" y="420" as="sourcePoint" />
            <mxPoint x="280" y="360" as="targetPoint" />
          </mxGeometry>
        </mxCell>
        <mxCell id="qn5_UtcD68faMCWrC0vZ-200" value="" style="endArrow=none;html=1;rounded=0;" edge="1" parent="1">
          <mxGeometry width="50" height="50" relative="1" as="geometry">
            <mxPoint x="280" y="360" as="sourcePoint" />
            <mxPoint x="330" y="360" as="targetPoint" />
          </mxGeometry>
        </mxCell>
        <mxCell id="qn5_UtcD68faMCWrC0vZ-201" value="" style="endArrow=none;html=1;rounded=0;" edge="1" parent="1">
          <mxGeometry width="50" height="50" relative="1" as="geometry">
            <mxPoint x="200" y="430" as="sourcePoint" />
            <mxPoint x="290" y="430" as="targetPoint" />
          </mxGeometry>
        </mxCell>
        <mxCell id="qn5_UtcD68faMCWrC0vZ-202" value="" style="endArrow=none;html=1;rounded=0;" edge="1" parent="1">
          <mxGeometry width="50" height="50" relative="1" as="geometry">
            <mxPoint x="290" y="430" as="sourcePoint" />
            <mxPoint x="290" y="350" as="targetPoint" />
          </mxGeometry>
        </mxCell>
        <mxCell id="qn5_UtcD68faMCWrC0vZ-203" value="" style="endArrow=none;html=1;rounded=0;" edge="1" parent="1">
          <mxGeometry width="50" height="50" relative="1" as="geometry">
            <mxPoint x="290" y="350" as="sourcePoint" />
            <mxPoint x="330" y="350" as="targetPoint" />
          </mxGeometry>
        </mxCell>
        <mxCell id="qn5_UtcD68faMCWrC0vZ-204" value="" style="endArrow=none;html=1;rounded=0;" edge="1" parent="1">
          <mxGeometry width="50" height="50" relative="1" as="geometry">
            <mxPoint x="200" y="400" as="sourcePoint" />
            <mxPoint x="270" y="400" as="targetPoint" />
          </mxGeometry>
        </mxCell>
        <mxCell id="qn5_UtcD68faMCWrC0vZ-205" value="" style="endArrow=none;html=1;rounded=0;" edge="1" parent="1">
          <mxGeometry width="50" height="50" relative="1" as="geometry">
            <mxPoint x="270" y="400" as="sourcePoint" />
            <mxPoint x="270" y="340" as="targetPoint" />
          </mxGeometry>
        </mxCell>
        <mxCell id="qn5_UtcD68faMCWrC0vZ-206" value="" style="endArrow=none;html=1;rounded=0;" edge="1" parent="1">
          <mxGeometry width="50" height="50" relative="1" as="geometry">
            <mxPoint x="270" y="340" as="sourcePoint" />
            <mxPoint x="330" y="340" as="targetPoint" />
          </mxGeometry>
        </mxCell>
        <mxCell id="qn5_UtcD68faMCWrC0vZ-207" value="" style="rounded=0;whiteSpace=wrap;html=1;" vertex="1" parent="1">
          <mxGeometry x="350.5" y="450" width="81" height="235" as="geometry" />
        </mxCell>
        <mxCell id="qn5_UtcD68faMCWrC0vZ-208" value="" style="endArrow=none;html=1;rounded=0;" edge="1" parent="1">
          <mxGeometry width="50" height="50" relative="1" as="geometry">
            <mxPoint x="330.5" y="460" as="sourcePoint" />
            <mxPoint x="350.5" y="460" as="targetPoint" />
          </mxGeometry>
        </mxCell>
        <mxCell id="qn5_UtcD68faMCWrC0vZ-209" value="" style="endArrow=none;html=1;rounded=0;" edge="1" parent="1">
          <mxGeometry width="50" height="50" relative="1" as="geometry">
            <mxPoint x="330.5" y="470" as="sourcePoint" />
            <mxPoint x="350.5" y="470" as="targetPoint" />
          </mxGeometry>
        </mxCell>
        <mxCell id="qn5_UtcD68faMCWrC0vZ-210" value="" style="endArrow=none;html=1;rounded=0;" edge="1" parent="1">
          <mxGeometry width="50" height="50" relative="1" as="geometry">
            <mxPoint x="330.5" y="480" as="sourcePoint" />
            <mxPoint x="350.5" y="480" as="targetPoint" />
          </mxGeometry>
        </mxCell>
        <mxCell id="qn5_UtcD68faMCWrC0vZ-211" value="" style="endArrow=none;html=1;rounded=0;" edge="1" parent="1">
          <mxGeometry width="50" height="50" relative="1" as="geometry">
            <mxPoint x="330.5" y="490" as="sourcePoint" />
            <mxPoint x="350.5" y="490" as="targetPoint" />
          </mxGeometry>
        </mxCell>
        <mxCell id="qn5_UtcD68faMCWrC0vZ-212" value="" style="endArrow=none;html=1;rounded=0;" edge="1" parent="1">
          <mxGeometry width="50" height="50" relative="1" as="geometry">
            <mxPoint x="330.5" y="500" as="sourcePoint" />
            <mxPoint x="350.5" y="500" as="targetPoint" />
          </mxGeometry>
        </mxCell>
        <mxCell id="qn5_UtcD68faMCWrC0vZ-213" value="" style="endArrow=none;html=1;rounded=0;" edge="1" parent="1">
          <mxGeometry width="50" height="50" relative="1" as="geometry">
            <mxPoint x="330.5" y="510" as="sourcePoint" />
            <mxPoint x="350.5" y="510" as="targetPoint" />
          </mxGeometry>
        </mxCell>
        <mxCell id="qn5_UtcD68faMCWrC0vZ-214" value="" style="endArrow=none;html=1;rounded=0;" edge="1" parent="1">
          <mxGeometry width="50" height="50" relative="1" as="geometry">
            <mxPoint x="330.5" y="520" as="sourcePoint" />
            <mxPoint x="350.5" y="520" as="targetPoint" />
          </mxGeometry>
        </mxCell>
        <mxCell id="qn5_UtcD68faMCWrC0vZ-215" value="" style="endArrow=none;html=1;rounded=0;" edge="1" parent="1">
          <mxGeometry width="50" height="50" relative="1" as="geometry">
            <mxPoint x="330.5" y="530" as="sourcePoint" />
            <mxPoint x="350.5" y="530" as="targetPoint" />
          </mxGeometry>
        </mxCell>
        <mxCell id="qn5_UtcD68faMCWrC0vZ-216" value="&lt;font style=&quot;font-size: 9px;&quot;&gt;D0&lt;/font&gt;" style="text;html=1;align=center;verticalAlign=middle;whiteSpace=wrap;rounded=0;" vertex="1" parent="1">
          <mxGeometry x="340.5" y="450" width="40" height="10" as="geometry" />
        </mxCell>
        <mxCell id="qn5_UtcD68faMCWrC0vZ-217" value="&lt;font style=&quot;font-size: 9px;&quot;&gt;D1&lt;/font&gt;" style="text;html=1;align=center;verticalAlign=middle;whiteSpace=wrap;rounded=0;" vertex="1" parent="1">
          <mxGeometry x="340.5" y="460" width="40" height="10" as="geometry" />
        </mxCell>
        <mxCell id="qn5_UtcD68faMCWrC0vZ-218" value="&lt;font style=&quot;font-size: 9px;&quot;&gt;D2&lt;/font&gt;" style="text;html=1;align=center;verticalAlign=middle;whiteSpace=wrap;rounded=0;" vertex="1" parent="1">
          <mxGeometry x="340.5" y="470" width="40" height="10" as="geometry" />
        </mxCell>
        <mxCell id="qn5_UtcD68faMCWrC0vZ-219" value="&lt;font style=&quot;font-size: 9px;&quot;&gt;D3&lt;/font&gt;" style="text;html=1;align=center;verticalAlign=middle;whiteSpace=wrap;rounded=0;" vertex="1" parent="1">
          <mxGeometry x="340.5" y="480" width="40" height="10" as="geometry" />
        </mxCell>
        <mxCell id="qn5_UtcD68faMCWrC0vZ-220" value="&lt;font style=&quot;font-size: 9px;&quot;&gt;D4&lt;/font&gt;" style="text;html=1;align=center;verticalAlign=middle;whiteSpace=wrap;rounded=0;" vertex="1" parent="1">
          <mxGeometry x="340.5" y="490" width="40" height="10" as="geometry" />
        </mxCell>
        <mxCell id="qn5_UtcD68faMCWrC0vZ-221" value="&lt;font style=&quot;font-size: 9px;&quot;&gt;D5&lt;/font&gt;" style="text;html=1;align=center;verticalAlign=middle;whiteSpace=wrap;rounded=0;" vertex="1" parent="1">
          <mxGeometry x="340.5" y="500" width="40" height="10" as="geometry" />
        </mxCell>
        <mxCell id="qn5_UtcD68faMCWrC0vZ-222" value="&lt;font style=&quot;font-size: 9px;&quot;&gt;D6&lt;/font&gt;" style="text;html=1;align=center;verticalAlign=middle;whiteSpace=wrap;rounded=0;" vertex="1" parent="1">
          <mxGeometry x="340.5" y="510" width="40" height="10" as="geometry" />
        </mxCell>
        <mxCell id="qn5_UtcD68faMCWrC0vZ-223" value="&lt;font style=&quot;font-size: 9px;&quot;&gt;D7&lt;/font&gt;" style="text;html=1;align=center;verticalAlign=middle;whiteSpace=wrap;rounded=0;" vertex="1" parent="1">
          <mxGeometry x="340.5" y="520" width="40" height="10" as="geometry" />
        </mxCell>
        <mxCell id="qn5_UtcD68faMCWrC0vZ-224" value="" style="endArrow=none;html=1;rounded=0;" edge="1" parent="1">
          <mxGeometry width="50" height="50" relative="1" as="geometry">
            <mxPoint x="330.5" y="560" as="sourcePoint" />
            <mxPoint x="350.5" y="560" as="targetPoint" />
          </mxGeometry>
        </mxCell>
        <mxCell id="qn5_UtcD68faMCWrC0vZ-225" value="" style="endArrow=none;html=1;rounded=0;" edge="1" parent="1">
          <mxGeometry width="50" height="50" relative="1" as="geometry">
            <mxPoint x="330.5" y="570" as="sourcePoint" />
            <mxPoint x="350.5" y="570" as="targetPoint" />
            <Array as="points">
              <mxPoint x="330.5" y="570" />
            </Array>
          </mxGeometry>
        </mxCell>
        <mxCell id="qn5_UtcD68faMCWrC0vZ-227" value="" style="endArrow=none;html=1;rounded=0;" edge="1" parent="1">
          <mxGeometry width="50" height="50" relative="1" as="geometry">
            <mxPoint x="330.5" y="590" as="sourcePoint" />
            <mxPoint x="350.5" y="590" as="targetPoint" />
            <Array as="points">
              <mxPoint x="330.5" y="590" />
            </Array>
          </mxGeometry>
        </mxCell>
        <mxCell id="qn5_UtcD68faMCWrC0vZ-228" value="" style="endArrow=none;html=1;rounded=0;" edge="1" parent="1">
          <mxGeometry width="50" height="50" relative="1" as="geometry">
            <mxPoint x="330.5" y="600" as="sourcePoint" />
            <mxPoint x="350.5" y="600" as="targetPoint" />
            <Array as="points">
              <mxPoint x="330.5" y="600" />
            </Array>
          </mxGeometry>
        </mxCell>
        <mxCell id="qn5_UtcD68faMCWrC0vZ-229" value="" style="endArrow=none;html=1;rounded=0;" edge="1" parent="1">
          <mxGeometry width="50" height="50" relative="1" as="geometry">
            <mxPoint x="330.5" y="610" as="sourcePoint" />
            <mxPoint x="350.5" y="610" as="targetPoint" />
            <Array as="points">
              <mxPoint x="330.5" y="610" />
            </Array>
          </mxGeometry>
        </mxCell>
        <mxCell id="qn5_UtcD68faMCWrC0vZ-230" value="" style="endArrow=none;html=1;rounded=0;" edge="1" parent="1">
          <mxGeometry width="50" height="50" relative="1" as="geometry">
            <mxPoint x="330.5" y="620" as="sourcePoint" />
            <mxPoint x="350.5" y="620" as="targetPoint" />
            <Array as="points">
              <mxPoint x="330.5" y="620" />
            </Array>
          </mxGeometry>
        </mxCell>
        <mxCell id="qn5_UtcD68faMCWrC0vZ-232" value="&lt;font style=&quot;font-size: 9px;&quot;&gt;B/A&lt;/font&gt;" style="text;html=1;align=center;verticalAlign=middle;whiteSpace=wrap;rounded=0;" vertex="1" parent="1">
          <mxGeometry x="340.5" y="550" width="40" height="10" as="geometry" />
        </mxCell>
        <mxCell id="qn5_UtcD68faMCWrC0vZ-233" value="&lt;font style=&quot;font-size: 9px;&quot;&gt;C/D&lt;/font&gt;" style="text;html=1;align=center;verticalAlign=middle;whiteSpace=wrap;rounded=0;" vertex="1" parent="1">
          <mxGeometry x="340.5" y="560" width="40" height="10" as="geometry" />
        </mxCell>
        <mxCell id="qn5_UtcD68faMCWrC0vZ-235" value="&lt;font style=&quot;font-size: 9px;&quot;&gt;CE&lt;/font&gt;" style="text;html=1;align=center;verticalAlign=middle;whiteSpace=wrap;rounded=0;" vertex="1" parent="1">
          <mxGeometry x="340.5" y="580" width="40" height="10" as="geometry" />
        </mxCell>
        <mxCell id="qn5_UtcD68faMCWrC0vZ-236" value="&lt;font style=&quot;font-size: 9px;&quot;&gt;IORQ&lt;/font&gt;" style="text;html=1;align=left;verticalAlign=middle;whiteSpace=wrap;rounded=0;" vertex="1" parent="1">
          <mxGeometry x="350.5" y="590" width="40" height="10" as="geometry" />
        </mxCell>
        <mxCell id="qn5_UtcD68faMCWrC0vZ-237" value="&lt;font style=&quot;font-size: 9px;&quot;&gt;M1&lt;/font&gt;" style="text;html=1;align=center;verticalAlign=middle;whiteSpace=wrap;rounded=0;" vertex="1" parent="1">
          <mxGeometry x="340.5" y="600" width="40" height="10" as="geometry" />
        </mxCell>
        <mxCell id="qn5_UtcD68faMCWrC0vZ-238" value="&lt;font style=&quot;font-size: 9px;&quot;&gt;INT&lt;/font&gt;" style="text;html=1;align=center;verticalAlign=middle;whiteSpace=wrap;rounded=0;" vertex="1" parent="1">
          <mxGeometry x="340.5" y="610" width="40" height="10" as="geometry" />
        </mxCell>
        <mxCell id="qn5_UtcD68faMCWrC0vZ-239" value="&lt;font style=&quot;font-size: 9px;&quot;&gt;CLK&lt;/font&gt;" style="text;html=1;align=center;verticalAlign=middle;whiteSpace=wrap;rounded=0;" vertex="1" parent="1">
          <mxGeometry x="340.5" y="620" width="40" height="10" as="geometry" />
        </mxCell>
        <mxCell id="qn5_UtcD68faMCWrC0vZ-252" value="Z80PIO" style="text;html=1;align=center;verticalAlign=middle;whiteSpace=wrap;rounded=0;" vertex="1" parent="1">
          <mxGeometry x="361" y="407.5" width="60" height="35" as="geometry" />
        </mxCell>
        <mxCell id="qn5_UtcD68faMCWrC0vZ-256" value="" style="endArrow=none;html=1;rounded=0;exitX=1.004;exitY=0.107;exitDx=0;exitDy=0;exitPerimeter=0;" edge="1" parent="1">
          <mxGeometry width="50" height="50" relative="1" as="geometry">
            <mxPoint x="431.50399999999996" y="479.865" as="sourcePoint" />
            <mxPoint x="450.18" y="479.72" as="targetPoint" />
          </mxGeometry>
        </mxCell>
        <mxCell id="qn5_UtcD68faMCWrC0vZ-258" value="" style="endArrow=none;html=1;rounded=0;exitX=1.004;exitY=0.107;exitDx=0;exitDy=0;exitPerimeter=0;" edge="1" parent="1">
          <mxGeometry width="50" height="50" relative="1" as="geometry">
            <mxPoint x="431.5" y="470" as="sourcePoint" />
            <mxPoint x="450.5" y="470" as="targetPoint" />
          </mxGeometry>
        </mxCell>
        <mxCell id="qn5_UtcD68faMCWrC0vZ-259" value="" style="endArrow=none;html=1;rounded=0;exitX=1.004;exitY=0.107;exitDx=0;exitDy=0;exitPerimeter=0;" edge="1" parent="1">
          <mxGeometry width="50" height="50" relative="1" as="geometry">
            <mxPoint x="431.5" y="490" as="sourcePoint" />
            <mxPoint x="450.5" y="490" as="targetPoint" />
          </mxGeometry>
        </mxCell>
        <mxCell id="qn5_UtcD68faMCWrC0vZ-260" value="" style="endArrow=none;html=1;rounded=0;exitX=1.004;exitY=0.107;exitDx=0;exitDy=0;exitPerimeter=0;" edge="1" parent="1">
          <mxGeometry width="50" height="50" relative="1" as="geometry">
            <mxPoint x="431" y="500" as="sourcePoint" />
            <mxPoint x="450" y="500" as="targetPoint" />
          </mxGeometry>
        </mxCell>
        <mxCell id="qn5_UtcD68faMCWrC0vZ-261" value="" style="endArrow=none;html=1;rounded=0;exitX=1.004;exitY=0.107;exitDx=0;exitDy=0;exitPerimeter=0;" edge="1" parent="1">
          <mxGeometry width="50" height="50" relative="1" as="geometry">
            <mxPoint x="431" y="510" as="sourcePoint" />
            <mxPoint x="450" y="510" as="targetPoint" />
          </mxGeometry>
        </mxCell>
        <mxCell id="qn5_UtcD68faMCWrC0vZ-262" value="" style="endArrow=none;html=1;rounded=0;exitX=1.004;exitY=0.107;exitDx=0;exitDy=0;exitPerimeter=0;" edge="1" parent="1">
          <mxGeometry width="50" height="50" relative="1" as="geometry">
            <mxPoint x="431.5" y="520" as="sourcePoint" />
            <mxPoint x="450.5" y="520" as="targetPoint" />
          </mxGeometry>
        </mxCell>
        <mxCell id="qn5_UtcD68faMCWrC0vZ-263" value="" style="endArrow=none;html=1;rounded=0;exitX=1.004;exitY=0.107;exitDx=0;exitDy=0;exitPerimeter=0;" edge="1" parent="1">
          <mxGeometry width="50" height="50" relative="1" as="geometry">
            <mxPoint x="431.5" y="530" as="sourcePoint" />
            <mxPoint x="450.5" y="530" as="targetPoint" />
          </mxGeometry>
        </mxCell>
        <mxCell id="qn5_UtcD68faMCWrC0vZ-264" value="" style="endArrow=none;html=1;rounded=0;exitX=1.004;exitY=0.107;exitDx=0;exitDy=0;exitPerimeter=0;" edge="1" parent="1">
          <mxGeometry width="50" height="50" relative="1" as="geometry">
            <mxPoint x="431.5" y="540" as="sourcePoint" />
            <mxPoint x="450.5" y="540" as="targetPoint" />
          </mxGeometry>
        </mxCell>
        <mxCell id="qn5_UtcD68faMCWrC0vZ-265" value="" style="endArrow=none;html=1;rounded=0;exitX=1.004;exitY=0.107;exitDx=0;exitDy=0;exitPerimeter=0;" edge="1" parent="1">
          <mxGeometry width="50" height="50" relative="1" as="geometry">
            <mxPoint x="431.5" y="550" as="sourcePoint" />
            <mxPoint x="450.5" y="550" as="targetPoint" />
          </mxGeometry>
        </mxCell>
        <mxCell id="qn5_UtcD68faMCWrC0vZ-266" value="" style="endArrow=none;html=1;rounded=0;exitX=1.004;exitY=0.107;exitDx=0;exitDy=0;exitPerimeter=0;" edge="1" parent="1">
          <mxGeometry width="50" height="50" relative="1" as="geometry">
            <mxPoint x="431.5" y="560" as="sourcePoint" />
            <mxPoint x="450.5" y="560" as="targetPoint" />
          </mxGeometry>
        </mxCell>
        <mxCell id="qn5_UtcD68faMCWrC0vZ-267" value="" style="endArrow=none;html=1;rounded=0;exitX=1.004;exitY=0.107;exitDx=0;exitDy=0;exitPerimeter=0;" edge="1" parent="1">
          <mxGeometry width="50" height="50" relative="1" as="geometry">
            <mxPoint x="431.5" y="570" as="sourcePoint" />
            <mxPoint x="450.5" y="570" as="targetPoint" />
          </mxGeometry>
        </mxCell>
        <mxCell id="qn5_UtcD68faMCWrC0vZ-268" value="" style="endArrow=none;html=1;rounded=0;exitX=1.004;exitY=0.107;exitDx=0;exitDy=0;exitPerimeter=0;" edge="1" parent="1">
          <mxGeometry width="50" height="50" relative="1" as="geometry">
            <mxPoint x="431" y="580" as="sourcePoint" />
            <mxPoint x="450" y="580" as="targetPoint" />
          </mxGeometry>
        </mxCell>
        <mxCell id="qn5_UtcD68faMCWrC0vZ-269" value="" style="endArrow=none;html=1;rounded=0;exitX=1.004;exitY=0.107;exitDx=0;exitDy=0;exitPerimeter=0;" edge="1" parent="1">
          <mxGeometry width="50" height="50" relative="1" as="geometry">
            <mxPoint x="431.5" y="590" as="sourcePoint" />
            <mxPoint x="450.5" y="590" as="targetPoint" />
          </mxGeometry>
        </mxCell>
        <mxCell id="qn5_UtcD68faMCWrC0vZ-270" value="" style="endArrow=none;html=1;rounded=0;exitX=1.004;exitY=0.107;exitDx=0;exitDy=0;exitPerimeter=0;" edge="1" parent="1">
          <mxGeometry width="50" height="50" relative="1" as="geometry">
            <mxPoint x="431" y="600" as="sourcePoint" />
            <mxPoint x="450" y="600" as="targetPoint" />
          </mxGeometry>
        </mxCell>
        <mxCell id="qn5_UtcD68faMCWrC0vZ-271" value="" style="endArrow=none;html=1;rounded=0;exitX=1.004;exitY=0.107;exitDx=0;exitDy=0;exitPerimeter=0;" edge="1" parent="1">
          <mxGeometry width="50" height="50" relative="1" as="geometry">
            <mxPoint x="431.5" y="609.6" as="sourcePoint" />
            <mxPoint x="450.5" y="609.6" as="targetPoint" />
          </mxGeometry>
        </mxCell>
        <mxCell id="qn5_UtcD68faMCWrC0vZ-272" value="" style="endArrow=none;html=1;rounded=0;exitX=1.004;exitY=0.107;exitDx=0;exitDy=0;exitPerimeter=0;" edge="1" parent="1">
          <mxGeometry width="50" height="50" relative="1" as="geometry">
            <mxPoint x="431" y="619.6" as="sourcePoint" />
            <mxPoint x="450" y="619.6" as="targetPoint" />
          </mxGeometry>
        </mxCell>
        <mxCell id="qn5_UtcD68faMCWrC0vZ-274" value="" style="endArrow=none;html=1;rounded=0;" edge="1" parent="1">
          <mxGeometry width="50" height="50" relative="1" as="geometry">
            <mxPoint x="240" y="560" as="sourcePoint" />
            <mxPoint x="240" y="210" as="targetPoint" />
          </mxGeometry>
        </mxCell>
        <mxCell id="qn5_UtcD68faMCWrC0vZ-275" value="" style="endArrow=none;html=1;rounded=0;" edge="1" parent="1">
          <mxGeometry width="50" height="50" relative="1" as="geometry">
            <mxPoint x="230" y="570" as="sourcePoint" />
            <mxPoint x="230" y="220" as="targetPoint" />
          </mxGeometry>
        </mxCell>
        <mxCell id="qn5_UtcD68faMCWrC0vZ-276" value="" style="endArrow=none;html=1;rounded=0;" edge="1" parent="1">
          <mxGeometry width="50" height="50" relative="1" as="geometry">
            <mxPoint x="240" y="560" as="sourcePoint" />
            <mxPoint x="330" y="560" as="targetPoint" />
          </mxGeometry>
        </mxCell>
        <mxCell id="qn5_UtcD68faMCWrC0vZ-277" value="" style="endArrow=none;html=1;rounded=0;" edge="1" parent="1">
          <mxGeometry width="50" height="50" relative="1" as="geometry">
            <mxPoint x="230" y="570" as="sourcePoint" />
            <mxPoint x="330" y="570" as="targetPoint" />
          </mxGeometry>
        </mxCell>
        <mxCell id="qn5_UtcD68faMCWrC0vZ-278" value="" style="endArrow=none;html=1;rounded=0;" edge="1" parent="1">
          <mxGeometry width="50" height="50" relative="1" as="geometry">
            <mxPoint x="200" y="410" as="sourcePoint" />
            <mxPoint x="220" y="410" as="targetPoint" />
          </mxGeometry>
        </mxCell>
        <mxCell id="qn5_UtcD68faMCWrC0vZ-279" value="" style="endArrow=none;html=1;rounded=0;" edge="1" parent="1">
          <mxGeometry width="50" height="50" relative="1" as="geometry">
            <mxPoint x="220" y="600" as="sourcePoint" />
            <mxPoint x="220" y="410" as="targetPoint" />
          </mxGeometry>
        </mxCell>
        <mxCell id="qn5_UtcD68faMCWrC0vZ-280" value="" style="endArrow=none;html=1;rounded=0;" edge="1" parent="1">
          <mxGeometry width="50" height="50" relative="1" as="geometry">
            <mxPoint x="220" y="600" as="sourcePoint" />
            <mxPoint x="330" y="600" as="targetPoint" />
          </mxGeometry>
        </mxCell>
        <mxCell id="qn5_UtcD68faMCWrC0vZ-281" value="" style="endArrow=none;html=1;rounded=0;" edge="1" parent="1">
          <mxGeometry width="50" height="50" relative="1" as="geometry">
            <mxPoint x="330" y="600" as="sourcePoint" />
            <mxPoint x="330" y="590" as="targetPoint" />
          </mxGeometry>
        </mxCell>
        <mxCell id="qn5_UtcD68faMCWrC0vZ-282" value="" style="endArrow=none;html=1;rounded=0;" edge="1" parent="1">
          <mxGeometry width="50" height="50" relative="1" as="geometry">
            <mxPoint x="330.5" y="630" as="sourcePoint" />
            <mxPoint x="350.5" y="630" as="targetPoint" />
            <Array as="points">
              <mxPoint x="330.5" y="630" />
            </Array>
          </mxGeometry>
        </mxCell>
        <mxCell id="qn5_UtcD68faMCWrC0vZ-283" value="" style="endArrow=none;html=1;rounded=0;" edge="1" parent="1">
          <mxGeometry width="50" height="50" relative="1" as="geometry">
            <mxPoint x="330.5" y="640" as="sourcePoint" />
            <mxPoint x="350.5" y="640" as="targetPoint" />
            <Array as="points">
              <mxPoint x="330.5" y="640" />
            </Array>
          </mxGeometry>
        </mxCell>
        <mxCell id="qn5_UtcD68faMCWrC0vZ-284" value="Text" style="text;html=1;align=center;verticalAlign=middle;whiteSpace=wrap;rounded=0;" vertex="1" parent="1">
          <mxGeometry x="290" y="570" width="60" height="30" as="geometry" />
        </mxCell>
        <mxCell id="qn5_UtcD68faMCWrC0vZ-285" value="&lt;font style=&quot;font-size: 9px;&quot;&gt;RD&lt;/font&gt;" style="text;html=1;align=center;verticalAlign=middle;whiteSpace=wrap;rounded=0;" vertex="1" parent="1">
          <mxGeometry x="340.5" y="630" width="40" height="10" as="geometry" />
        </mxCell>
        <mxCell id="qn5_UtcD68faMCWrC0vZ-286" value="" style="endArrow=none;html=1;rounded=0;" edge="1" parent="1">
          <mxGeometry width="50" height="50" relative="1" as="geometry">
            <mxPoint x="319.66" y="460" as="sourcePoint" />
            <mxPoint x="320" y="110" as="targetPoint" />
          </mxGeometry>
        </mxCell>
        <mxCell id="qn5_UtcD68faMCWrC0vZ-287" value="" style="endArrow=none;html=1;rounded=0;" edge="1" parent="1">
          <mxGeometry width="50" height="50" relative="1" as="geometry">
            <mxPoint x="310" y="470" as="sourcePoint" />
            <mxPoint x="310.34" y="120" as="targetPoint" />
          </mxGeometry>
        </mxCell>
        <mxCell id="qn5_UtcD68faMCWrC0vZ-288" value="" style="endArrow=none;html=1;rounded=0;" edge="1" parent="1">
          <mxGeometry width="50" height="50" relative="1" as="geometry">
            <mxPoint x="300" y="480" as="sourcePoint" />
            <mxPoint x="300.34000000000003" y="130" as="targetPoint" />
          </mxGeometry>
        </mxCell>
        <mxCell id="qn5_UtcD68faMCWrC0vZ-289" value="" style="endArrow=none;html=1;rounded=0;" edge="1" parent="1">
          <mxGeometry width="50" height="50" relative="1" as="geometry">
            <mxPoint x="290" y="490" as="sourcePoint" />
            <mxPoint x="290.34000000000003" y="140" as="targetPoint" />
          </mxGeometry>
        </mxCell>
        <mxCell id="qn5_UtcD68faMCWrC0vZ-290" value="" style="endArrow=none;html=1;rounded=0;" edge="1" parent="1">
          <mxGeometry width="50" height="50" relative="1" as="geometry">
            <mxPoint x="280" y="500" as="sourcePoint" />
            <mxPoint x="280.34000000000003" y="150" as="targetPoint" />
          </mxGeometry>
        </mxCell>
        <mxCell id="qn5_UtcD68faMCWrC0vZ-291" value="" style="endArrow=none;html=1;rounded=0;" edge="1" parent="1">
          <mxGeometry width="50" height="50" relative="1" as="geometry">
            <mxPoint x="270" y="510" as="sourcePoint" />
            <mxPoint x="270.34000000000003" y="160" as="targetPoint" />
          </mxGeometry>
        </mxCell>
        <mxCell id="qn5_UtcD68faMCWrC0vZ-292" value="" style="endArrow=none;html=1;rounded=0;" edge="1" parent="1">
          <mxGeometry width="50" height="50" relative="1" as="geometry">
            <mxPoint x="260" y="520" as="sourcePoint" />
            <mxPoint x="260.34000000000003" y="170" as="targetPoint" />
          </mxGeometry>
        </mxCell>
        <mxCell id="qn5_UtcD68faMCWrC0vZ-293" value="" style="endArrow=none;html=1;rounded=0;" edge="1" parent="1">
          <mxGeometry width="50" height="50" relative="1" as="geometry">
            <mxPoint x="250.00000000000003" y="530" as="sourcePoint" />
            <mxPoint x="250.34" y="180" as="targetPoint" />
          </mxGeometry>
        </mxCell>
        <mxCell id="qn5_UtcD68faMCWrC0vZ-294" value="" style="endArrow=none;html=1;rounded=0;" edge="1" parent="1">
          <mxGeometry width="50" height="50" relative="1" as="geometry">
            <mxPoint x="320" y="460" as="sourcePoint" />
            <mxPoint x="330" y="460" as="targetPoint" />
          </mxGeometry>
        </mxCell>
        <mxCell id="qn5_UtcD68faMCWrC0vZ-295" value="" style="endArrow=none;html=1;rounded=0;" edge="1" parent="1">
          <mxGeometry width="50" height="50" relative="1" as="geometry">
            <mxPoint x="310" y="470" as="sourcePoint" />
            <mxPoint x="330" y="470" as="targetPoint" />
          </mxGeometry>
        </mxCell>
        <mxCell id="qn5_UtcD68faMCWrC0vZ-296" value="" style="endArrow=none;html=1;rounded=0;" edge="1" parent="1">
          <mxGeometry width="50" height="50" relative="1" as="geometry">
            <mxPoint x="300" y="480" as="sourcePoint" />
            <mxPoint x="330" y="480" as="targetPoint" />
          </mxGeometry>
        </mxCell>
        <mxCell id="qn5_UtcD68faMCWrC0vZ-297" value="" style="endArrow=none;html=1;rounded=0;" edge="1" parent="1">
          <mxGeometry width="50" height="50" relative="1" as="geometry">
            <mxPoint x="290" y="490" as="sourcePoint" />
            <mxPoint x="330" y="490" as="targetPoint" />
          </mxGeometry>
        </mxCell>
        <mxCell id="qn5_UtcD68faMCWrC0vZ-298" value="" style="endArrow=none;html=1;rounded=0;" edge="1" parent="1">
          <mxGeometry width="50" height="50" relative="1" as="geometry">
            <mxPoint x="280" y="500" as="sourcePoint" />
            <mxPoint x="330" y="500" as="targetPoint" />
          </mxGeometry>
        </mxCell>
        <mxCell id="qn5_UtcD68faMCWrC0vZ-299" value="" style="endArrow=none;html=1;rounded=0;" edge="1" parent="1">
          <mxGeometry width="50" height="50" relative="1" as="geometry">
            <mxPoint x="270" y="510" as="sourcePoint" />
            <mxPoint x="330" y="510" as="targetPoint" />
          </mxGeometry>
        </mxCell>
        <mxCell id="qn5_UtcD68faMCWrC0vZ-300" value="" style="endArrow=none;html=1;rounded=0;" edge="1" parent="1">
          <mxGeometry width="50" height="50" relative="1" as="geometry">
            <mxPoint x="260" y="520" as="sourcePoint" />
            <mxPoint x="330" y="520" as="targetPoint" />
          </mxGeometry>
        </mxCell>
        <mxCell id="qn5_UtcD68faMCWrC0vZ-301" value="" style="endArrow=none;html=1;rounded=0;" edge="1" parent="1">
          <mxGeometry width="50" height="50" relative="1" as="geometry">
            <mxPoint x="250" y="530" as="sourcePoint" />
            <mxPoint x="330" y="530" as="targetPoint" />
          </mxGeometry>
        </mxCell>
      </root>
    </mxGraphModel>
  </diagram>
</mxfile>
